<svg width="24" height="24" viewBox="0 0 24 24" fill="none" xmlns="http://www.w3.org/2000/svg">
<path d="M8.64899 10.574V15.483" stroke="black" stroke-width="1.5" stroke-linecap="round" stroke-linejoin="round"/>
<path d="M11.92 15.483V12.619C11.92 11.489 12.835 10.574 13.965 10.574V10.574C15.095 10.574 16.01 11.489 16.01 12.619V15.483" stroke="black" stroke-width="1.5" stroke-linecap="round" stroke-linejoin="round"/>
<path d="M8.64701 7.60799C8.53401 7.60799 8.44201 7.69999 8.44301 7.81299C8.44301 7.92599 8.53501 8.01799 8.64801 8.01799C8.76101 8.01799 8.85301 7.92599 8.85301 7.81299C8.85201 7.69899 8.76001 7.60799 8.64701 7.60799" stroke="black" stroke-width="1.5" stroke-linecap="round" stroke-linejoin="round"/>
<path d="M19.071 4.92899C22.976 8.83399 22.976 15.166 19.071 19.071C15.166 22.976 8.83399 22.976 4.92899 19.071C1.02399 15.166 1.02399 8.83399 4.92899 4.92899C8.83399 1.02399 15.166 1.02399 19.071 4.92899" stroke="black" stroke-width="1.5" stroke-linecap="round" stroke-linejoin="round"/>
</svg>
