<svg width="510" height="480" viewBox="0 0 510 480" fill="none" xmlns="http://www.w3.org/2000/svg">
<path d="M320.135 193.681L330.503 316.676C330.503 316.676 386.556 416.306 386.265 455.051L396.43 450.681C396.43 450.681 385.394 403.29 360.708 306.772L356.351 198.985L320.135 193.681Z" fill="white" stroke="black" stroke-width="2.2039" stroke-miterlimit="10"/>
<path d="M397.851 446.09L396.259 466.307L390.782 465.188C390.782 465.188 374.288 469.191 359.793 466.494C359.793 466.494 377.776 452.449 386.3 448.549C386.3 448.549 384.366 454.855 397.851 446.09Z" fill="black"/>
<path d="M356.866 143.056L369.421 307.646L407.176 439.611L376.101 447.185L323.824 316.968L320.048 193.742L356.866 143.056Z" fill="black"/>
<path d="M301.17 183.545L264.286 289.292C264.286 289.292 283.164 411.21 268.329 452.018L276.922 457.288C276.922 457.288 298.556 395.039 284.616 295.119L340.77 189.739L301.17 183.545Z" fill="white" stroke="black" stroke-width="2.2039" stroke-miterlimit="10"/>
<path d="M281.987 444.942L280.367 465.157L274.892 464.032C274.892 464.032 258.393 468.011 243.901 465.293C243.901 465.293 261.907 451.275 270.431 447.386C270.431 447.386 268.488 453.687 281.987 444.942Z" fill="black"/>
<path d="M351.995 117.999C351.995 117.999 383.071 169.562 292.458 295.119L286.649 445.146L264.577 443.98L259.93 289.584L310.754 121.787L351.995 117.999Z" fill="black"/>
<path d="M326.146 132.857C326.146 132.857 321.209 149.462 339.215 160.823" stroke="white" stroke-width="2.2039" stroke-miterlimit="10"/>
<path d="M319.859 187.661L277.646 287.836L273.87 432.619" stroke="white" stroke-width="2.2039" stroke-miterlimit="10"/>
<path d="M310.754 121.787L351.704 117.999L344.176 66.6641C343.997 64.2542 343.345 61.9035 342.26 59.7462C341.174 57.5889 339.675 55.6672 337.849 54.0909C336.023 52.5145 333.905 51.3145 331.617 50.5593C329.328 49.804 326.914 49.5083 324.512 49.6892L319.975 50.03C315.123 50.3949 310.615 52.678 307.441 56.3771C304.267 60.0762 302.689 64.8883 303.052 69.7549L310.754 121.787Z" fill="white" stroke="black" stroke-width="2.2039" stroke-miterlimit="10"/>
<path d="M310.441 40.1194L316.133 58.5712C317.701 58.727 319.283 58.4976 320.743 57.9028C322.203 57.3079 323.496 56.3655 324.512 55.157L318.523 36.8974C314.152 17.5891 307.165 16.8783 301.815 21.6092C296.465 26.3402 300.671 39.3211 304.957 41.0108C309.244 42.7004 315.413 36.3497 315.413 36.3497" fill="white"/>
<path d="M310.441 40.1194L316.133 58.5712C317.701 58.727 319.283 58.4976 320.743 57.9028C322.203 57.3079 323.496 56.3655 324.512 55.157L318.523 36.8974C314.152 17.5891 307.165 16.8783 301.815 21.6092C296.465 26.3402 300.671 39.3212 304.957 41.0108C309.244 42.7004 315.413 36.3497 315.413 36.3497" stroke="black" stroke-width="2.2039" stroke-miterlimit="10"/>
<path d="M303.198 30.6054C302.943 30.6054 302.736 30.398 302.736 30.1422C302.736 29.8864 302.943 29.679 303.198 29.679C303.453 29.679 303.66 29.8864 303.66 30.1422C303.66 30.398 303.453 30.6054 303.198 30.6054Z" fill="black"/>
<path d="M311.24 42.7646C311.24 42.7646 315.094 40.6176 315.329 36.4285C315.329 36.4285 312.094 39.531 310.514 40.0379L311.24 42.7646Z" fill="black"/>
<path d="M300.879 12.5437C304.1 11.0055 305.526 11.8241 306.18 12.9369C306.035 11.3085 306.615 9.85192 310.464 12.835C315.18 16.491 315.813 22.6231 315.822 25.5887C316.026 26.5096 316.123 27.4509 316.112 28.3941C310.42 28.2397 307.911 25.1896 306.801 22.594C304.635 24.843 300.063 28.9126 296.75 27.2143C296.75 27.2143 296.892 26.8414 297.168 26.2558C290.424 22.9407 295.135 15.2878 300.879 12.5437Z" fill="black"/>
<path d="M217.818 44.8793H311.626V147.131H217.818V44.8793Z" fill="#EEAE3F"/>
<path d="M194.293 44.8793H239.6V147.131H194.293V44.8793Z" fill="black"/>
<path d="M213.172 48.6665H235.535V55.3667H213.172V48.6665Z" fill="white"/>
<path d="M214.914 59.737H234.953V63.5241H214.914V59.737Z" fill="white"/>
<path d="M200.102 114.212H212.3V140.139H200.102V114.212Z" fill="white"/>
<path d="M252.867 145.707C252.867 145.707 246.216 146.394 241.953 148.107C237.689 149.82 252.748 148.632 252.748 148.632C252.748 148.632 245.313 150.825 242.792 152.433C240.271 154.041 253.538 152.378 253.538 152.378C253.538 152.378 243.239 155.326 243.579 156.165C243.919 157.004 263.738 153.068 263.738 153.068L263.758 152.853L337.183 149.543C338.905 149.466 340.534 148.741 341.746 147.513C342.958 146.284 343.664 144.643 343.724 142.916L346.32 67.8209L328.604 65.4175L329.052 135.371L262.895 141.095C258.771 140.294 249.272 138.66 246.417 139.962C242.734 141.64 257.281 141.649 257.281 141.649L252.67 142.505C252.67 142.505 246.6 143.161 241.741 144.617C236.882 146.074 252.867 145.707 252.867 145.707Z" fill="white" stroke="black" stroke-width="2.2039" stroke-miterlimit="10"/>
<path d="M336.612 53.6272C332.995 53.4947 329.473 54.8093 326.821 57.2816C324.169 59.754 322.606 63.1816 322.474 66.8105L321.489 93.8847L348.771 94.8834L349.756 67.8092C349.888 64.1803 348.577 60.6474 346.112 57.9878C343.647 55.3282 340.23 53.7596 336.612 53.6272Z" fill="black"/>
<path d="M311.702 7.68864L308.602 6.56429C306.02 5.62793 303.174 5.75859 300.688 6.92753C298.202 8.09648 296.282 10.208 295.348 12.7975L293.724 17.304L316.291 25.4895L317.916 20.9829C318.849 18.3934 318.719 15.538 317.554 13.0449C316.388 10.5517 314.283 8.62501 311.702 7.68864Z" fill="#EEAE3F"/>
<path d="M316.273 25.3619L278.227 11.6701" stroke="black" stroke-width="2.2039" stroke-miterlimit="10"/>
</svg>
