<svg width="510" height="478" viewBox="0 0 510 478" fill="none" xmlns="http://www.w3.org/2000/svg">
<path d="M234.261 44.0245L234.91 109.065C235.16 110.11 235.188 111.196 234.993 112.253C234.798 113.31 234.384 114.314 233.778 115.199L233.662 115.37C233.03 116.296 232.203 117.071 231.241 117.64C230.278 118.21 229.203 118.56 228.091 118.666C226.979 118.773 225.858 118.632 224.806 118.256C223.754 117.879 222.797 117.274 222.002 116.485L181.814 76.5794L192.783 62.5611L220.574 92.2718L222.391 44.5488C221.331 40.6039 218.125 31.4862 219.223 28.5117C220.599 24.7725 222.466 38.4085 222.492 38.7416L223.007 34.1074C223.007 34.1074 223.218 28.0251 224.312 23.1013C225.387 18.2268 226.156 33.6962 226.179 34.0785C226.179 33.8757 226.404 27.3532 227.766 23.0724C229.128 18.7916 229.054 33.4007 229.054 33.7657C229.103 33.5397 230.71 26.1801 232.095 23.5995C233.481 21.0188 232.824 33.9626 232.804 34.316C232.867 34.009 234.99 23.866 235.846 24.144C236.641 24.3496 234.581 41.4352 234.261 44.0245Z" fill="white" stroke="black" stroke-width="2.19714" stroke-miterlimit="10"/>
<path d="M164.2 22.8317C163.114 23.4602 139.206 43.445 145.831 51.2651C154.386 61.3618 145.255 73.567 155.336 76.1737C165.418 78.7804 155.912 102.53 169.163 99.0548C182.413 95.5792 226.196 70.381 208.913 65.4572C191.63 60.5335 181.886 53.2636 188.75 47.7895C197.103 41.1279 180.108 26.6462 180.108 26.6462" fill="#4F68FF"/>
<path d="M194.578 184.889L217.109 271.544C217.109 271.544 244.251 407.901 265.993 445.145L258.547 451.845C258.547 451.845 204.086 379.957 192.357 288.01L148.637 201.644L194.578 184.889Z" fill="white" stroke="black" stroke-width="2.19714" stroke-miterlimit="10"/>
<path d="M174.823 182.18L163.301 272.735C163.301 272.735 137.766 412.052 143.527 455.595L134.468 459.071C134.468 459.071 112.23 370.258 135.291 278.834L127.877 180.443L174.823 182.18Z" fill="white" stroke="black" stroke-width="2.19714" stroke-miterlimit="10"/>
<path d="M159.13 55.0302H163.641C168.467 55.0302 173.095 56.9578 176.508 60.389C179.92 63.8203 181.837 68.474 181.837 73.3264V108.407C181.837 113.07 179.995 117.543 176.715 120.841C173.436 124.138 168.988 125.991 164.35 125.991H158.422C156.125 125.991 153.851 125.536 151.73 124.652C149.608 123.769 147.68 122.473 146.056 120.841C142.777 117.543 140.934 113.07 140.934 108.407V73.3264C140.934 68.474 142.852 63.8203 146.264 60.389C149.676 56.9578 154.304 55.0302 159.13 55.0302Z" fill="black"/>
<path d="M168.586 41.6003L164.326 60.302C162.787 60.5739 161.205 60.4647 159.718 59.9837C158.23 59.5028 156.882 58.6646 155.789 57.5418L160.363 39.0052C163.26 19.5244 170.119 18.2992 175.762 22.5916C181.405 26.884 178.201 40.0681 174.085 42.0608C169.969 44.0535 163.402 38.2319 163.402 38.2319" fill="white"/>
<path d="M168.586 41.6003L164.326 60.302C162.787 60.5739 161.205 60.4647 159.718 59.9837C158.23 59.5028 156.882 58.6647 155.789 57.5418L160.363 39.0052C163.26 19.5244 170.119 18.2992 175.762 22.5916C181.405 26.884 178.201 40.0681 174.085 42.0608C169.969 44.0535 163.402 38.2319 163.402 38.2319" stroke="black" stroke-width="2.19714" stroke-miterlimit="10"/>
<path d="M174.54 29.4915L174.235 35.7765" stroke="black" stroke-width="2.19714" stroke-miterlimit="10"/>
<path d="M172.179 29.8729C172.432 29.8729 172.637 29.6668 172.637 29.4124C172.637 29.1581 172.432 28.9519 172.179 28.9519C171.926 28.9519 171.721 29.1581 171.721 29.4124C171.721 29.6668 171.926 29.8729 172.179 29.8729Z" fill="black"/>
<path d="M176.753 30.1806C177.006 30.1806 177.211 29.9744 177.211 29.7201C177.211 29.4658 177.006 29.2596 176.753 29.2596C176.5 29.2596 176.295 29.4658 176.295 29.7201C176.295 29.9744 176.5 30.1806 176.753 30.1806Z" fill="black"/>
<path d="M168.011 44.2826C168.011 44.2826 164.042 42.4376 163.497 38.3045C163.497 38.3045 166.928 41.14 168.529 41.5223L168.011 44.2826Z" fill="black"/>
<path d="M171.858 55.3408C174.514 52.9114 178.022 51.6425 181.608 51.8132C185.195 51.9839 188.567 53.5802 190.983 56.251L209.008 76.1769L188.979 94.4965L170.953 74.5707C168.537 71.8999 167.275 68.3735 167.445 64.7672C167.615 61.1609 169.202 57.7701 171.858 55.3408Z" fill="black"/>
<path d="M155.625 63.4295C155.625 63.4295 153.897 76.1734 159.37 73.5667C163.803 71.4553 164.555 67.774 164.555 67.774C164.555 67.774 166.283 81.9661 164.555 89.7862" stroke="white" stroke-width="2.19714" stroke-miterlimit="10"/>
<path d="M168.01 63.7187C168.01 63.7187 177.228 74.1455 171.755 73.5663C166.282 72.987 164.554 67.4839 164.554 67.4839" stroke="white" stroke-width="2.19714" stroke-miterlimit="10"/>
<path d="M161.962 80.8083C162.757 80.8083 163.402 80.1599 163.402 79.3601C163.402 78.5603 162.757 77.9119 161.962 77.9119C161.166 77.9119 160.521 78.5603 160.521 79.3601C160.521 80.1599 161.166 80.8083 161.962 80.8083Z" stroke="white" stroke-width="2.19714" stroke-miterlimit="10"/>
<path d="M161.674 86.6003C162.469 86.6003 163.114 85.952 163.114 85.1522C163.114 84.3523 162.469 83.704 161.674 83.704C160.878 83.704 160.234 84.3523 160.234 85.1522C160.234 85.952 160.878 86.6003 161.674 86.6003Z" stroke="white" stroke-width="2.19714" stroke-miterlimit="10"/>
<path d="M208.783 216.383C205.963 216.511 202.481 216.415 198.685 216.282C191.524 216.036 183.245 215.659 176.168 216.415C172.291 216.826 168.774 217.573 166.003 218.883C165.406 219.159 164.828 219.477 164.274 219.833C160.17 222.465 154.17 223.108 147.732 222.703C144.823 222.504 141.928 222.144 139.059 221.625C133.825 220.667 128.651 219.399 123.565 217.828C120.935 217.026 118.706 216.27 117.078 215.694C115.22 215.042 114.146 214.619 114.146 214.619L141.254 111.509H142.585L147.121 111.475H148.873L154.714 111.428L166.112 111.341L172.06 111.295L177.349 111.254L180.883 111.228H181.603C181.603 111.228 214.386 205.351 215.826 213.171C216.232 215.375 213.386 216.177 208.783 216.383Z" fill="#4F68FF"/>
<path d="M130.564 229.391L114.146 214.619L130.798 219.792L131.717 229.391H130.564Z" fill="black"/>
<path d="M202 216.067L169.163 226.494L170.223 217.316C170.223 217.316 184.046 214.196 202 216.067Z" fill="black"/>
<path d="M216.181 213.721C216.181 213.721 211.794 221.689 204.593 223.598L201.712 216.067C201.712 216.067 213.367 217.458 216.181 213.721Z" fill="black"/>
<path d="M195.185 88.4483C195.185 88.4483 190.838 84.6831 194.047 84.3934C197.256 84.1038 198.011 85.3376 198.011 85.3376C198.011 85.3376 193.609 80.9207 196.628 81.4305C199.647 81.9402 200.744 82.6209 200.744 82.6209C200.744 82.6209 197.135 78.3922 199.606 78.566C201.138 78.6945 202.596 79.2794 203.795 80.2458C203.795 80.2458 199.811 75.0324 202.19 75.6117C203.674 75.9815 205.084 76.6025 206.361 77.448C206.361 77.448 202.357 73.1266 204.037 73.1035C205.716 73.0803 208.965 76.1707 208.965 76.1707" stroke="white" stroke-width="2.19714" stroke-linecap="round" stroke-linejoin="round"/>
<path d="M132.005 450.544L133.734 470.946L136.614 463.638C136.614 463.638 154.761 473.382 168.587 470.338C168.587 470.338 151.256 456.534 143.072 452.777C143.072 452.777 144.985 459.109 132.005 450.544Z" fill="black"/>
<path d="M253.848 447.609L266.989 462.835L265.261 455.276C265.261 455.276 286.225 452.128 296.205 441.374C296.205 441.374 273.608 440.794 264.52 442.723C264.506 442.732 269.751 446.63 253.848 447.609Z" fill="black"/>
<path d="M181.151 27.831C181.151 27.831 178.579 22.2121 174.489 20.5901C175.713 19.396 176.53 17.8422 176.821 16.1521C177.111 14.462 176.862 12.7227 176.108 11.1842C175.354 9.64561 174.134 8.38707 172.624 7.58942C171.114 6.79178 169.391 6.4961 167.704 6.7449C166.016 6.9937 164.45 7.77415 163.231 8.97409C162.012 10.174 161.203 11.7317 160.92 13.4231C160.637 15.1145 160.894 16.8526 161.656 18.3876C162.417 19.9226 163.642 21.1754 165.156 21.9659C161.484 24.8159 162.111 30.4117 162.111 30.4117C167.743 29.8324 169.998 26.5943 170.9 23.9499C173.195 26.0179 177.989 29.7397 181.151 27.831Z" fill="#4F68FF"/>
<path d="M127.54 142.665L123.821 216.067C124.832 220.021 127.09 229.625 125.955 232.576C124.515 236.341 123.651 221.86 123.651 221.86L123.075 226.494C123.075 226.494 122.787 232.576 121.635 237.5C120.482 242.424 119.906 226.494 119.906 226.494C119.906 226.494 119.618 233.155 118.178 237.5C116.738 241.844 117.026 226.783 117.026 226.783C117.026 226.783 115.298 234.314 113.857 236.921C112.417 239.527 113.281 226.204 113.281 226.204C113.281 226.204 110.977 236.631 110.113 236.341C109.315 236.075 111.585 219.053 111.939 216.432L112.129 141.706L129.772 74.9484L147.326 77.5551L127.54 142.665Z" fill="white" stroke="black" stroke-width="2.19714" stroke-miterlimit="10"/>
<path d="M146.584 54.3118C148.298 54.7871 149.902 55.5972 151.305 56.6959C152.707 57.7945 153.881 59.1601 154.758 60.7148C155.636 62.2695 156.2 63.9827 156.42 65.7568C156.639 67.5308 156.508 69.3308 156.035 71.0542L148.913 97.0205L122.811 89.7814L129.934 63.8151C130.888 60.3347 133.179 57.3782 136.302 55.596C139.424 53.8138 143.123 53.3518 146.584 54.3118Z" fill="black"/>
<path d="M123.96 89.9895C123.96 89.9895 126.244 82.8355 127.684 86.6008C129.124 90.366 128.548 90.6557 128.548 90.6557C128.548 90.6557 131.429 84.2837 132.581 87.1801C133.733 90.0764 132.869 91.2349 132.869 91.2349C132.869 91.2349 138.054 84.863 138.63 88.049C139.206 91.2349 138.63 92.3935 138.63 92.3935C138.63 92.3935 142.968 88.3849 143.527 90.6788C143.874 92.018 143.773 93.4351 143.239 94.7106C143.239 94.7106 144.967 90.0764 145.543 91.8142C146.119 93.552 145.315 96.3209 145.315 96.3209" stroke="white" stroke-width="2.19714" stroke-linecap="round" stroke-linejoin="round"/>
</svg>
