<svg width="1440" height="174" viewBox="0 0 1440 174" fill="none" xmlns="http://www.w3.org/2000/svg">
<path fill-rule="evenodd" clip-rule="evenodd" d="M0 17V139H52.228V104H101.969V17H154.197V87H206.425V104H256.166V52H308.394V87H360.622V70H410.363V139H462.591V52H514.819H564.56V0H616.788V52H669.016V87H721.244V52H770.984V70H823.212V17H875.44V139H925.181V157H977.409V0H1029.64V104H1079.38V87H1131.61V139H1183.83V70H1233.58V0H1285.8V52H1338.03V122H1387.77V104H1440V174H1387.77H1338.03H1285.8H1233.58H1183.83H1131.61H1079.38H1029.64H977.409H925.181H875.44H823.212H770.984H721.244H669.016H616.788H564.56H514.819H462.591H410.363H360.622H308.394H256.166H206.425H154.197H101.969H52.228H0V17Z" fill="black"/>
</svg>
