<svg width="146" height="32" viewBox="0 0 146 32" fill="none" xmlns="http://www.w3.org/2000/svg">
<path fill-rule="evenodd" clip-rule="evenodd" d="M12.7239 0.687536C14.4092 -0.229179 16.4443 -0.229179 18.1295 0.687536L27.8998 6.00205C29.7202 6.99226 30.8534 8.89867 30.8534 10.971V21.029C30.8534 23.1013 29.7202 25.0077 27.8998 25.998L18.1295 31.3125C16.4443 32.2292 14.4092 32.2292 12.7239 31.3125L2.95362 25.998C1.13321 25.0077 0 23.1013 0 21.029L0 10.971C0 8.89867 1.1332 6.99226 2.95362 6.00205L12.7239 0.687536Z" fill="#3772FF"/>
<g filter="url(#filter0_d_1_169)">
<path fill-rule="evenodd" clip-rule="evenodd" d="M12.4238 23.5033V10.9981C12.4238 9.34053 13.7675 7.99683 15.4251 7.99683H23.4284C25.086 7.99683 26.4297 9.34053 26.4297 10.9981V23.5033C26.4298 23.6908 26.3251 23.8627 26.1583 23.9485C25.9916 24.0343 25.7908 24.0196 25.6383 23.9105L19.7179 19.6807C19.5438 19.5561 19.3097 19.5561 19.1356 19.6807L13.2152 23.9095C13.0628 24.0185 12.8623 24.0333 12.6956 23.9477C12.5289 23.8622 12.4241 23.6906 12.4238 23.5033Z" fill="url(#paint0_linear_1_169)"/>
</g>
<path d="M52.7468 12.288C52.3628 11.584 51.8348 11.048 51.1628 10.68C50.4908 10.312 49.7068 10.128 48.8108 10.128C47.8188 10.128 46.9388 10.352 46.1708 10.8C45.4028 11.248 44.8028 11.888 44.3708 12.72C43.9388 13.552 43.7228 14.512 43.7228 15.6C43.7228 16.72 43.9388 17.696 44.3708 18.528C44.8188 19.36 45.4348 20 46.2188 20.448C47.0028 20.896 47.9148 21.12 48.9548 21.12C50.2348 21.12 51.2828 20.784 52.0988 20.112C52.9148 19.424 53.4508 18.472 53.7068 17.256H47.9468V14.688H57.0188V17.616C56.7948 18.784 56.3148 19.864 55.5788 20.856C54.8428 21.848 53.8908 22.648 52.7228 23.256C51.5708 23.848 50.2748 24.144 48.8348 24.144C47.2188 24.144 45.7548 23.784 44.4428 23.064C43.1468 22.328 42.1228 21.312 41.3708 20.016C40.6348 18.72 40.2668 17.248 40.2668 15.6C40.2668 13.952 40.6348 12.48 41.3708 11.184C42.1228 9.872 43.1468 8.856 44.4428 8.136C45.7548 7.4 47.2108 7.032 48.8108 7.032C50.6988 7.032 52.3388 7.496 53.7308 8.424C55.1228 9.336 56.0828 10.624 56.6108 12.288H52.7468ZM71.3846 17.064C71.3846 17.544 71.3526 17.976 71.2886 18.36H61.5686C61.6486 19.32 61.9846 20.072 62.5766 20.616C63.1686 21.16 63.8966 21.432 64.7606 21.432C66.0086 21.432 66.8966 20.896 67.4246 19.824H71.0486C70.6646 21.104 69.9286 22.16 68.8406 22.992C67.7526 23.808 66.4166 24.216 64.8326 24.216C63.5526 24.216 62.4006 23.936 61.3766 23.376C60.3686 22.8 59.5766 21.992 59.0006 20.952C58.4406 19.912 58.1606 18.712 58.1606 17.352C58.1606 15.976 58.4406 14.768 59.0006 13.728C59.5606 12.688 60.3446 11.888 61.3526 11.328C62.3606 10.768 63.5206 10.488 64.8326 10.488C66.0966 10.488 67.2246 10.76 68.2166 11.304C69.2246 11.848 70.0006 12.624 70.5446 13.632C71.1046 14.624 71.3846 15.768 71.3846 17.064ZM67.9046 16.104C67.8886 15.24 67.5766 14.552 66.9686 14.04C66.3606 13.512 65.6166 13.248 64.7366 13.248C63.9046 13.248 63.2006 13.504 62.6246 14.016C62.0646 14.512 61.7206 15.208 61.5926 16.104H67.9046ZM85.7171 17.064C85.7171 17.544 85.6851 17.976 85.6211 18.36H75.9011C75.9811 19.32 76.3171 20.072 76.9091 20.616C77.5011 21.16 78.2291 21.432 79.0931 21.432C80.3411 21.432 81.2291 20.896 81.7571 19.824H85.3811C84.9971 21.104 84.2611 22.16 83.1731 22.992C82.0851 23.808 80.7491 24.216 79.1651 24.216C77.8851 24.216 76.7331 23.936 75.7091 23.376C74.7011 22.8 73.9091 21.992 73.3331 20.952C72.7731 19.912 72.4931 18.712 72.4931 17.352C72.4931 15.976 72.7731 14.768 73.3331 13.728C73.8931 12.688 74.6771 11.888 75.6851 11.328C76.6931 10.768 77.8531 10.488 79.1651 10.488C80.4291 10.488 81.5571 10.76 82.5491 11.304C83.5571 11.848 84.3331 12.624 84.8771 13.632C85.4371 14.624 85.7171 15.768 85.7171 17.064ZM82.2371 16.104C82.2211 15.24 81.9091 14.552 81.3011 14.04C80.6931 13.512 79.9491 13.248 79.0691 13.248C78.2371 13.248 77.5331 13.504 76.9571 14.016C76.3971 14.512 76.0531 15.208 75.9251 16.104H82.2371ZM95.5616 24L91.0496 18.336V24H87.6896V6.24H91.0496V16.344L95.5136 10.704H99.8816L94.0256 17.376L99.9296 24H95.5616ZM107.129 24.216C105.849 24.216 104.697 23.936 103.673 23.376C102.649 22.8 101.841 21.992 101.249 20.952C100.673 19.912 100.385 18.712 100.385 17.352C100.385 15.992 100.681 14.792 101.273 13.752C101.881 12.712 102.705 11.912 103.745 11.352C104.785 10.776 105.945 10.488 107.225 10.488C108.505 10.488 109.665 10.776 110.705 11.352C111.745 11.912 112.561 12.712 113.153 13.752C113.761 14.792 114.065 15.992 114.065 17.352C114.065 18.712 113.753 19.912 113.129 20.952C112.521 21.992 111.689 22.8 110.633 23.376C109.593 23.936 108.425 24.216 107.129 24.216ZM107.129 21.288C107.737 21.288 108.305 21.144 108.833 20.856C109.377 20.552 109.809 20.104 110.129 19.512C110.449 18.92 110.609 18.2 110.609 17.352C110.609 16.088 110.273 15.12 109.601 14.448C108.945 13.76 108.137 13.416 107.177 13.416C106.217 13.416 105.409 13.76 104.753 14.448C104.113 15.12 103.793 16.088 103.793 17.352C103.793 18.616 104.105 19.592 104.729 20.28C105.369 20.952 106.169 21.288 107.129 21.288ZM128.602 10.704V24H125.218V22.32C124.786 22.896 124.218 23.352 123.514 23.688C122.826 24.008 122.074 24.168 121.258 24.168C120.218 24.168 119.298 23.952 118.498 23.52C117.698 23.072 117.066 22.424 116.602 21.576C116.154 20.712 115.93 19.688 115.93 18.504V10.704H119.29V18.024C119.29 19.08 119.554 19.896 120.082 20.472C120.61 21.032 121.33 21.312 122.242 21.312C123.17 21.312 123.898 21.032 124.426 20.472C124.954 19.896 125.218 19.08 125.218 18.024V10.704H128.602ZM135.349 13.464V19.896C135.349 20.344 135.453 20.672 135.661 20.88C135.885 21.072 136.253 21.168 136.765 21.168H138.325V24H136.213C133.381 24 131.965 22.624 131.965 19.872V13.464H130.381V10.704H131.965V7.416H135.349V10.704H138.325V13.464H135.349ZM141.75 24.168C141.142 24.168 140.638 23.984 140.238 23.616C139.854 23.232 139.662 22.76 139.662 22.2C139.662 21.64 139.854 21.176 140.238 20.808C140.638 20.424 141.142 20.232 141.75 20.232C142.342 20.232 142.83 20.424 143.214 20.808C143.598 21.176 143.79 21.64 143.79 22.2C143.79 22.76 143.598 23.232 143.214 23.616C142.83 23.984 142.342 24.168 141.75 24.168Z" fill="black"/>
<defs>
<filter id="filter0_d_1_169" x="8.42383" y="5.99683" width="22.0059" height="24.0071" filterUnits="userSpaceOnUse" color-interpolation-filters="sRGB">
<feFlood flood-opacity="0" result="BackgroundImageFix"/>
<feColorMatrix in="SourceAlpha" type="matrix" values="0 0 0 0 0 0 0 0 0 0 0 0 0 0 0 0 0 0 127 0" result="hardAlpha"/>
<feOffset dy="2"/>
<feGaussianBlur stdDeviation="2"/>
<feColorMatrix type="matrix" values="0 0 0 0 0 0 0 0 0 0 0 0 0 0 0 0 0 0 0.15 0"/>
<feBlend mode="normal" in2="BackgroundImageFix" result="effect1_dropShadow_1_169"/>
<feBlend mode="normal" in="SourceGraphic" in2="effect1_dropShadow_1_169" result="shape"/>
</filter>
<linearGradient id="paint0_linear_1_169" x1="23.607" y1="8.94705" x2="12.9801" y2="19.0678" gradientUnits="userSpaceOnUse">
<stop stop-color="white"/>
<stop offset="1" stop-color="#FCFCFD" stop-opacity="0.75"/>
</linearGradient>
</defs>
</svg>
